<svg width="119" height="89" viewBox="0 0 119 89" fill="none" xmlns="http://www.w3.org/2000/svg">
<g clip-path="url(#clip0_514_28)">
<g clip-path="url(#clip1_514_28)">
<path d="M78.6687 59.587H6.89428C6.27872 59.587 5.66316 59.0946 5.66316 58.3559V7.01813C5.66316 6.40257 6.15561 5.787 6.89428 5.787H88.6407C89.2563 5.787 89.8719 6.27945 89.8719 7.01813V27.8241C90.3643 27.8241 90.9799 27.701 91.4723 27.701H93.6883C94.3039 27.701 94.9195 27.701 95.535 27.8241V6.89501C95.535 3.07854 92.4572 0.000732422 88.6407 0.000732422H6.89428C3.0778 0.000732422 0 3.07854 0 6.89501V68.5742C0.123112 71.8982 2.83158 74.4836 6.15561 74.4836H37.1799C37.1799 75.8378 36.3181 82.1165 27.0847 83.2245H27.3309C25.8536 83.2245 24.6224 84.4557 24.6224 85.933C24.6224 87.4104 25.8536 88.6415 27.3309 88.6415H61.5561V80.6392C58.7245 78.4232 58.4783 75.4685 58.3552 74.4836H64.0183C64.3877 73.9911 64.757 73.6218 65.2494 73.2525C70.1739 69.1898 75.3446 66.112 78.5456 64.3884V59.587H78.6687ZM47.7675 71.0364C45.9208 71.0364 44.3204 69.5591 44.3204 67.5893C44.3204 65.7426 45.7977 64.1422 47.7675 64.1422C49.7373 64.1422 51.2146 65.6195 51.2146 67.5893C51.2146 69.436 49.6142 71.0364 47.7675 71.0364ZM116.341 77.4383C117.572 78.4232 118.188 79.9005 118.188 81.3779V88.6415H66.973V81.3779C66.973 79.9005 67.7117 78.4232 68.8197 77.4383C75.3446 72.0213 82.362 68.5742 83.8394 67.8355C83.9625 67.7124 84.0856 67.5893 84.0856 67.4662V57.2479C82.8545 56.3861 81.9927 54.9088 81.9927 53.3083V42.7207C81.9927 37.4268 86.3016 33.241 91.4723 33.241H93.6883C98.9822 33.241 103.168 37.5499 103.168 42.7207V53.3083C103.168 54.9088 102.306 56.3861 101.075 57.2479V67.4662C101.075 67.5893 101.198 67.8355 101.321 67.8355C102.799 68.4511 109.816 72.0213 116.341 77.4383Z" fill="#AD46FF"/>
</g>
</g>
<defs>
<clipPath id="clip0_514_28">
<rect width="118.188" height="88.6407" fill="white" transform="translate(0 0.000732422)"/>
</clipPath>
<clipPath id="clip1_514_28">
<rect width="118.188" height="88.6407" fill="white" transform="translate(0 0.000732422)"/>
</clipPath>
</defs>
</svg>
